<svg xmlns="http://www.w3.org/2000/svg" xmlns:svgjs="http://svgjs.dev/svgjs" xmlns:xlink="http://www.w3.org/1999/xlink" width="1440" height="560" preserveAspectRatio="none" version="1.1" viewBox="0 0 1440 560"><g fill="none" mask="url(&quot;#SvgjsMask1004&quot;)"><rect width="1440" height="560" x="0" y="0" fill="rgba(31, 40, 41, 1)"/><path stroke="rgba(187, 68, 48, 1)" d="M812.88 177.19 a23.61 23.61 0 1 0 47.22 0 a23.61 23.61 0 1 0 -47.22 0z"/><path stroke="rgba(151, 167, 34, 1)" d="M599.81 190.42L644.09 190.42L644.09 233.69L599.81 233.69z"/><path fill="rgba(187, 68, 48, 1)" d="M914.45 155.79L954.4 155.79L954.4 195.74L914.45 195.74z"/><path fill="rgba(2, 127, 153, 1)" d="M1003.14 188.11 a18.98 18.98 0 1 0 37.96 0 a18.98 18.98 0 1 0 -37.96 0z"/><path fill="rgba(187, 68, 48, 1)" d="M1277.23 521.31L1327.85 521.31L1327.85 571.93L1277.23 571.93z"/><path stroke="rgba(151, 167, 34, 1)" d="M64.02 426.95a33.11 33.11 0 1 0 42.8 50.53z"/><path fill="rgba(151, 167, 34, 1)" d="M1188.32 117.87L1221.73 117.87L1221.73 137.97L1188.32 137.97z"/><path stroke="rgba(151, 167, 34, 1)" d="M187.11 395.04L196 395.04L196 425.43L187.11 425.43z"/><path fill="rgba(187, 68, 48, 1)" d="M803.04 402.27 a16.93 16.93 0 1 0 33.86 0 a16.93 16.93 0 1 0 -33.86 0z"/><path stroke="rgba(151, 167, 34, 1)" d="M1107.2 126.19L1151.58 126.19L1151.58 132.31L1107.2 132.31z"/><path fill="rgba(2, 127, 153, 1)" d="M1183.05 246.38 a38.74 38.74 0 1 0 77.48 0 a38.74 38.74 0 1 0 -77.48 0z"/><path stroke="rgba(151, 167, 34, 1)" d="M1162.2 492.28a38.86 38.86 0 1 0-20.03-75.1z"/><path fill="rgba(2, 127, 153, 1)" d="M1377.56 444.04a44.51 44.51 0 1 0 70.19 54.76z"/><path stroke="rgba(2, 127, 153, 1)" d="M268.97 402.55 a53.15 53.15 0 1 0 106.3 0 a53.15 53.15 0 1 0 -106.3 0z"/><path fill="rgba(187, 68, 48, 1)" d="M579.33 238.45a0.47 0.47 0 1 0 0.22-0.91z"/><path fill="rgba(2, 127, 153, 1)" d="M1091.14 503.69 a17.43 17.43 0 1 0 34.86 0 a17.43 17.43 0 1 0 -34.86 0z"/><path fill="rgba(2, 127, 153, 1)" d="M317.26 394.55L369.25 394.55L369.25 446.54L317.26 446.54z"/><path fill="rgba(2, 127, 153, 1)" d="M752.63 255.56L793.15 255.56L793.15 272.11L752.63 272.11z"/><path fill="rgba(151, 167, 34, 1)" d="M289.09 470.04L334.38 470.04L334.38 515.33L289.09 515.33z"/><path stroke="rgba(151, 167, 34, 1)" d="M753.83 83.55L767.97 83.55L767.97 104.46L753.83 104.46z"/><path fill="rgba(2, 127, 153, 1)" d="M374.87 463.13L407.96 463.13L407.96 513.26L374.87 513.26z"/><path stroke="rgba(2, 127, 153, 1)" d="M1136.35 127.71 a17.08 17.08 0 1 0 34.16 0 a17.08 17.08 0 1 0 -34.16 0z"/><path stroke="rgba(2, 127, 153, 1)" d="M562.01 267.94 a51.51 51.51 0 1 0 103.02 0 a51.51 51.51 0 1 0 -103.02 0z"/><path stroke="rgba(187, 68, 48, 1)" d="M192.7 109.56a29.83 29.83 0 1 0-49.38 33.49z"/><path stroke="rgba(151, 167, 34, 1)" d="M1404.44 427.17L1406.92 427.17L1406.92 429.65L1404.44 429.65z"/><path stroke="rgba(151, 167, 34, 1)" d="M113.97 257.21a45.85 45.85 0 1 0 20.22-89.45z"/><path fill="rgba(2, 127, 153, 1)" d="M568.22 119.78L581.24 119.78L581.24 148.3L568.22 148.3z"/><path fill="rgba(151, 167, 34, 1)" d="M692.26 199.66a55.54 55.54 0 1 0 96.12 55.68z"/><path fill="rgba(2, 127, 153, 1)" d="M972.72 325.01L976.16 325.01L976.16 333.09L972.72 333.09z"/><path stroke="rgba(151, 167, 34, 1)" d="M787.93 188.63L840.25 188.63L840.25 240.95L787.93 240.95z"/><path fill="rgba(2, 127, 153, 1)" d="M1380.87 121.41 a14.04 14.04 0 1 0 28.08 0 a14.04 14.04 0 1 0 -28.08 0z"/><path stroke="rgba(151, 167, 34, 1)" d="M181.27 412.13L202.74 412.13L202.74 433.6L181.27 433.6z"/><path fill="rgba(2, 127, 153, 1)" d="M1089.39 170.6L1096.25 170.6L1096.25 183.07L1089.39 183.07z"/></g><defs><mask id="SvgjsMask1004"><rect width="1440" height="560" fill="#fff"/></mask></defs></svg>