<svg xmlns="http://www.w3.org/2000/svg" version="1.1" xmlns:xlink="http://www.w3.org/1999/xlink" xmlns:svgjs="http://svgjs.dev/svgjs" width="1440" height="560" preserveAspectRatio="none" viewBox="0 0 1440 560">
    <g mask="url(&quot;#SvgjsMask1018&quot;)" fill="none">
        <rect width="1440" height="560" x="0" y="0" fill="rgba(31, 40, 41, 1)"></rect>
        <path d="M439.67,178.352C471.128,179.073,497.734,157.532,513.474,130.286C529.223,103.025,533.036,70.1,518.27,42.295C502.571,12.733,473.129,-7.745,439.67,-8.691C404.568,-9.684,368.735,6.241,352.974,37.621C338.332,66.773,354.391,99.258,371.501,127.033C387.491,152.988,409.193,177.654,439.67,178.352" fill="rgba(170, 239, 223, 1)" class="triangle-float3"></path>
        <path d="M1274.9384248522504 74.97386704234756L1236.7808750520426 160.6771270956958 1384.4145400321688 175.06182176933342z" fill="rgba(170, 239, 223, 1)" class="triangle-float3"></path>
        <path d="M702.85,289.771C749.187,287.438,793.56,269.734,818.434,230.569C845.26,188.331,854.508,134.052,829.141,90.922C804.055,48.268,752.327,33.227,702.85,34.044C655.008,34.834,609.878,55.002,583.581,94.977C554.232,139.592,537.298,197.774,565.184,243.318C592.289,287.587,651.008,292.381,702.85,289.771" fill="rgba(170, 239, 223, 1)" class="triangle-float3"></path>
        <path d="M738.1901379976008 170.04697717525514L795.8107301580062 106.05282641004005 731.816579392791 48.43223424963469 674.1959872323857 112.42638501484979z" fill="rgba(170, 239, 223, 1)" class="triangle-float3"></path>
        <path d="M-77.86954902982939 314.4401212615344L-7.7492193570737555 440.94054460656145 48.63087431519769 244.31979158877874z" fill="rgba(170, 239, 223, 1)" class="triangle-float3"></path>
        <path d="M577.1767588623397 189.68384755281636L685.200280608217 242.3704394399337 737.8868724953343 134.34691769405646 629.863350749457 81.66032580693911z" fill="rgba(170, 239, 223, 1)" class="triangle-float3"></path>
        <path d="M1041.0014870182345 191.69607125120106L955.8479824599051 159.00870339403411 949.3936829533193 303.08264416011156z" fill="rgba(170, 239, 223, 1)" class="triangle-float3"></path>
        <path d="M481.43470234512404 144.13317855739484L489.19991076706634 232.88991696203794 570.1914407497671 136.36797013545254z" fill="rgba(170, 239, 223, 1)" class="triangle-float2"></path>
        <path d="M174.56707271727356 212.36099250377345L59.61806859483795 292.84915170000187 255.05523191350198 327.30999662620906z" fill="rgba(170, 239, 223, 1)" class="triangle-float1"></path>
        <path d="M289.381,470.574C334.654,468.385,373.188,441.128,396.154,402.051C419.471,362.376,426.865,314.139,405.168,273.555C382.27,230.726,337.947,202.293,289.381,202.336C240.885,202.379,198.859,232.151,173.951,273.762C148.265,316.673,137.783,370.184,163.084,413.323C188.147,456.056,239.898,472.967,289.381,470.574" fill="rgba(170, 239, 223, 1)" class="triangle-float3"></path>
        <path d="M247.40759984107729 40.38162806217673L281.9192184668068 117.89599262252294 359.433583027153 83.38437399679341 324.9219644014235 5.870009436447205z" fill="rgba(170, 239, 223, 1)" class="triangle-float2"></path>
        <path d="M773.05704085869 38.7963725817992L629.3100969675988-28.233928190993502 706.0267400858974 182.54331647289044z" fill="rgba(170, 239, 223, 1)" class="triangle-float3"></path>
        <path d="M387.0573980832123 81.00606925788865L316.84608500849936 33.64794061030476 339.6992694356284 151.2173823326016z" fill="rgba(170, 239, 223, 1)" class="triangle-float2"></path>
        <path d="M467.184,253.942C482.364,253.241,495.576,244.664,503.403,231.639C511.501,218.162,514.581,201.516,506.943,187.773C499.115,173.688,483.269,167.443,467.184,166.474C448.799,165.367,427.845,166.758,418.163,182.426C408.163,198.609,413.917,219.581,424.672,235.272C434.051,248.954,450.614,254.707,467.184,253.942" fill="rgba(170, 239, 223, 1)" class="triangle-float1"></path>
        <path d="M1415.9651700866214 182.99218859608143L1319.8665741880445 269.51975299450396 1406.3941385864669 365.6183488930809 1502.492734485044 279.09078449465835z" fill="rgba(170, 239, 223, 1)" class="triangle-float1"></path>
        <path d="M995.057138652255 609.411135666518L1103.8646405485288 588.2610998114174 973.9071027971544 500.6036337702443z" fill="rgba(170, 239, 223, 1)" class="triangle-float1"></path>
        <path d="M225.1284342431615 433.2411948848866L294.8999408663753 380.66459348718996 181.1492854582234 302.2956342512176z" fill="rgba(170, 239, 223, 1)" class="triangle-float1"></path>
        <path d="M1027.2684225302496-71.40916055616471L925.801586838899 5.051584430167338 1002.262331825231 106.51842012151802 1103.7291675165816 30.05767513518596z" fill="rgba(170, 239, 223, 1)" class="triangle-float1"></path>
        <path d="M346.882,433.59C374.722,432.965,402.479,423.768,417.312,400.2C433.103,375.111,435.784,342.421,420.092,317.27C405.133,293.294,375.136,286.718,346.882,287.313C319.876,287.882,293.629,297.651,278.824,320.244C262.446,345.237,255.37,377.873,270.752,403.491C285.808,428.565,317.642,434.247,346.882,433.59" fill="rgba(170, 239, 223, 1)" class="triangle-float2"></path>
        <path d="M1118.6038378093579 420.27606275567433L999.7119837980157 305.46353392091993 1003.7913089746035 539.1679167670164z" fill="rgba(170, 239, 223, 1)" class="triangle-float1"></path>
    </g>
    <defs>
        <mask id="SvgjsMask1018">
            <rect width="1440" height="560" fill="#ffffff"></rect>
        </mask>
        <style>
            @keyframes float1 {
                    0%{transform: translate(0, 0)}
                    50%{transform: translate(-10px, 0)}
                    100%{transform: translate(0, 0)}
                }

                .triangle-float1 {
                    animation: float1 5s infinite;
                }

                @keyframes float2 {
                    0%{transform: translate(0, 0)}
                    50%{transform: translate(-5px, -5px)}
                    100%{transform: translate(0, 0)}
                }

                .triangle-float2 {
                    animation: float2 4s infinite;
                }

                @keyframes float3 {
                    0%{transform: translate(0, 0)}
                    50%{transform: translate(0, -10px)}
                    100%{transform: translate(0, 0)}
                }

                .triangle-float3 {
                    animation: float3 6s infinite;
                }
        </style>
    </defs>
</svg>