<svg xmlns="http://www.w3.org/2000/svg" version="1.1" xmlns:xlink="http://www.w3.org/1999/xlink" xmlns:svgjs="http://svgjs.dev/svgjs" width="1559" height="1569" preserveAspectRatio="none" viewBox="0 0 1559 1569"><g mask="url(&quot;#SvgjsMask2555&quot;)" fill="none"><rect width="1559" height="1569" x="0" y="0" fill="url(&quot;#SvgjsRadialGradient2556&quot;)"></rect><path d="M570.22 1123.93a34.47 34.47 0 1 0-68.74-5.18z" stroke="rgba(31, 40, 41, 1)"></path><path d="M629.26 1352.51L722.72 1352.51L722.72 1493.27L629.26 1493.27z" stroke="rgba(31, 40, 41, 1)"></path><path d="M1487.21 934.92L1544.57 934.92L1544.57 1036.67L1487.21 1036.67z" fill="rgba(187, 68, 48, 1)"></path><path d="M187.08 17.32L330.66 17.32L330.66 37.59L187.08 37.59z" stroke="rgba(151, 167, 34, 1)"></path><path d="M196.85 914.73L257.2 914.73L257.2 975.08L196.85 975.08z" fill="rgba(2, 127, 153, 1)"></path><path d="M1082.21 1198.39L1225.42 1198.39L1225.42 1270.27L1082.21 1270.27z" stroke="rgba(151, 167, 34, 1)"></path><path d="M135.5 95.4a77.11 77.11 0 1 0-129.38-83.92z" stroke="rgba(31, 40, 41, 1)"></path><path d="M1411.24 1159.28L1486.21 1159.28L1486.21 1234.25L1411.24 1234.25z" stroke="rgba(151, 167, 34, 1)"></path><path d="M251.66 1177.4L291.45 1177.4L291.45 1217.08L251.66 1217.08z" fill="rgba(187, 68, 48, 1)"></path><path d="M115.46 754.42 a20.94 20.94 0 1 0 41.88 0 a20.94 20.94 0 1 0 -41.88 0z" stroke="rgba(31, 40, 41, 1)"></path><path d="M1017.25 622.42a109.45 109.45 0 1 0-217.91-20.77z" stroke="rgba(151, 167, 34, 1)"></path><path d="M1391.44 538.22 a134.32 134.32 0 1 0 268.64 0 a134.32 134.32 0 1 0 -268.64 0z" fill="rgba(187, 68, 48, 1)"></path><path d="M680.95 300.71a152.65 152.65 0 1 0 267.72-146.74z" stroke="rgba(2, 127, 153, 1)"></path></g><defs><mask id="SvgjsMask2555"><rect width="1559" height="1569" fill="#ffffff"></rect></mask><radialGradient cx="50%" cy="50%" r="1105.92" gradientUnits="userSpaceOnUse" id="SvgjsRadialGradient2556"><stop stop-color="rgba(31, 40, 41, 1)" offset="1"></stop><stop stop-color="rgba(31, 40, 41, 1)" offset="1"></stop></radialGradient></defs></svg>