<?xml version="1.0" encoding="UTF-8"?>
<!DOCTYPE svg PUBLIC "-//W3C//DTD SVG 1.1//EN" "http://www.w3.org/Graphics/SVG/1.1/DTD/svg11.dtd">
<svg xmlns="http://www.w3.org/2000/svg" version="1.1" width="1921px" height="405px" style="shape-rendering:geometricPrecision; text-rendering:geometricPrecision; image-rendering:optimizeQuality; fill-rule:evenodd; clip-rule:evenodd" xmlns:xlink="http://www.w3.org/1999/xlink">
<g><path style="opacity:0.984" fill="#3f3f43" d="M 271.5,0.5 C 361.022,51.8458 450.188,103.846 539,156.5C 539.5,174.83 539.667,193.164 539.5,211.5C 525.167,211.5 510.833,211.5 496.5,211.5C 496.5,275.5 496.5,339.5 496.5,403.5C 344.833,403.5 193.167,403.5 41.5,403.5C 41.5,339.833 41.5,276.167 41.5,212.5C 27.8333,212.5 14.1667,212.5 0.5,212.5C 0.173734,192.924 0.507067,173.424 1.5,154C 91.7251,103.059 181.725,51.8925 271.5,0.5 Z M 271.5,59.5 C 328.443,92.9742 385.109,126.974 441.5,161.5C 442.5,225.497 442.833,289.497 442.5,353.5C 327.5,353.5 212.5,353.5 97.5,353.5C 97.1667,289.497 97.5,225.497 98.5,161.5C 156.394,127.726 214.061,93.7257 271.5,59.5 Z"/></g>
<g><path style="opacity:0.969" fill="#3f3f42" d="M 1858.5,48.5 C 1873.9,46.4127 1888.23,49.2461 1901.5,57C 1911.56,65.2707 1916.56,75.7707 1916.5,88.5C 1910.17,91.5812 1903.67,94.2478 1897,96.5C 1894.69,91.6116 1892.36,86.6116 1890,81.5C 1881.26,71.9075 1871.09,70.0742 1859.5,76C 1856.89,77.9384 1855.06,80.4384 1854,83.5C 1851.41,91.3077 1849.91,99.3077 1849.5,107.5C 1849.37,122.324 1849.54,137.324 1850,152.5C 1849.71,174.239 1859.88,182.406 1880.5,177C 1882.89,175.048 1884.39,172.548 1885,169.5C 1885.5,161.841 1885.67,154.174 1885.5,146.5C 1880.83,146.5 1876.17,146.5 1871.5,146.5C 1871.5,138.833 1871.5,131.167 1871.5,123.5C 1885.83,123.5 1900.17,123.5 1914.5,123.5C 1914.67,142.17 1914.5,160.836 1914,179.5C 1910.54,191.955 1902.37,199.122 1889.5,201C 1873.59,203.555 1857.92,202.555 1842.5,198C 1833.12,193.615 1826.95,186.448 1824,176.5C 1822.28,169.606 1821.28,162.606 1821,155.5C 1820.33,136.167 1820.33,116.833 1821,97.5C 1819.64,70.108 1832.14,53.7747 1858.5,48.5 Z"/></g>
<g><path style="opacity:0.971" fill="#3f3f42" d="M 756.5,49.5 C 771.988,47.8256 786.321,50.9923 799.5,59C 806.822,65.9334 811.322,74.4334 813,84.5C 815.795,108.521 816.129,132.855 814,157.5C 812.334,165.329 810.167,172.996 807.5,180.5C 815.238,182.635 822.904,184.968 830.5,187.5C 830.637,191.179 829.971,194.679 828.5,198C 808.147,198.801 787.813,198.468 767.5,197C 754.24,196.271 741.906,192.604 730.5,186C 722.456,179.413 717.956,170.913 717,160.5C 716.333,137.833 716.333,115.167 717,92.5C 719.036,67.6408 732.202,53.3075 756.5,49.5 Z M 765.5,74.5 C 773.773,73.305 778.939,76.6383 781,84.5C 782.16,107.979 782.994,131.479 783.5,155C 783.569,161.421 782.403,167.588 780,173.5C 776.401,177.816 771.735,179.816 766,179.5C 759.267,179.968 754.267,177.302 751,171.5C 749.268,166.65 748.268,161.65 748,156.5C 747.333,136.167 747.333,115.833 748,95.5C 747.32,82.7039 753.153,75.7039 765.5,74.5 Z"/></g>
<g><path style="opacity:0.969" fill="#3f3f42" d="M 1367.5,49.5 C 1376.54,49.2829 1385.54,49.7829 1394.5,51C 1411.67,53.5 1421.5,63.3333 1424,80.5C 1425.1,95.2997 1425.6,110.133 1425.5,125C 1425.33,137.5 1425.17,150 1425,162.5C 1424.57,174.819 1420.07,185.319 1411.5,194C 1406.06,197.704 1400.06,200.037 1393.5,201C 1377.58,203.607 1361.92,202.607 1346.5,198C 1335.3,192.78 1329.13,183.947 1328,171.5C 1326.42,146.526 1326.09,121.526 1327,96.5C 1327.99,69.7018 1341.49,54.0352 1367.5,49.5 Z M 1374.5,73.5 C 1380.2,73.4689 1385.03,75.4689 1389,79.5C 1392.01,85.7029 1393.84,92.2029 1394.5,99C 1394.86,119.65 1394.36,140.483 1393,161.5C 1389.82,178.669 1380.32,183.502 1364.5,176C 1361.44,172.383 1359.61,168.216 1359,163.5C 1358.33,139.167 1358.33,114.833 1359,90.5C 1359.97,80.7059 1365.14,75.0393 1374.5,73.5 Z"/></g>
<g><path style="opacity:0.963" fill="#3f3f42" d="M 1588.5,49.5 C 1601.07,48.6524 1613.07,50.8191 1624.5,56C 1634.7,63.2371 1640.7,73.0704 1642.5,85.5C 1636.38,89.9751 1629.55,93.3084 1622,95.5C 1621.23,95.3552 1620.56,95.0219 1620,94.5C 1616.31,83.1421 1608.65,76.4754 1597,74.5C 1581.68,76.8097 1578.01,84.4763 1586,97.5C 1589.53,101.369 1593.37,104.869 1597.5,108C 1607.78,114.611 1617.78,121.611 1627.5,129C 1636.95,136.435 1643.12,145.935 1646,157.5C 1646.58,175.602 1638.75,188.768 1622.5,197C 1608.42,203.515 1593.75,205.182 1578.5,202C 1559.86,196.897 1549.53,184.73 1547.5,165.5C 1547.55,163.9 1547.88,162.4 1548.5,161C 1556.49,159.524 1564.49,158.524 1572.5,158C 1579.68,178.384 1592.85,183.884 1612,174.5C 1615.52,167.664 1615.18,160.997 1611,154.5C 1606.8,149.966 1602.3,145.799 1597.5,142C 1583.24,134.083 1570.41,124.249 1559,112.5C 1547.22,96.9224 1546.55,80.9224 1557,64.5C 1565.87,55.9394 1576.37,50.9394 1588.5,49.5 Z"/></g>
<g><path style="opacity:0.961" fill="#3f3f42" d="M 621.5,53.5 C 646.5,53.5 671.5,53.5 696.5,53.5C 696.5,61.5 696.5,69.5 696.5,77.5C 681.167,77.5 665.833,77.5 650.5,77.5C 650.5,90.1667 650.5,102.833 650.5,115.5C 664.5,115.5 678.5,115.5 692.5,115.5C 692.5,122.833 692.5,130.167 692.5,137.5C 678.5,137.5 664.5,137.5 650.5,137.5C 650.5,150.833 650.5,164.167 650.5,177.5C 665.833,177.5 681.167,177.5 696.5,177.5C 696.5,185.5 696.5,193.5 696.5,201.5C 671.5,201.5 646.5,201.5 621.5,201.5C 621.5,152.167 621.5,102.833 621.5,53.5 Z"/></g>
<g><path style="opacity:0.971" fill="#3f3f43" d="M 843.5,53.5 C 853.5,53.5 863.5,53.5 873.5,53.5C 873.523,82.8153 873.523,111.982 873.5,141C 873.987,150.21 875.154,159.377 877,168.5C 880.159,174.453 885.159,177.453 892,177.5C 903.182,176.309 908.849,169.976 909,158.5C 909.5,123.502 909.667,88.5016 909.5,53.5C 919.167,53.5 928.833,53.5 938.5,53.5C 938.667,90.1682 938.5,126.835 938,163.5C 938.14,176.465 933.306,186.965 923.5,195C 912.887,200.58 901.554,203.08 889.5,202.5C 878.597,202.873 868.263,200.707 858.5,196C 852.755,191.908 848.922,186.408 847,179.5C 845.223,172.953 844.223,166.286 844,159.5C 843.5,124.168 843.333,88.8349 843.5,53.5 Z"/></g>
<g><path style="opacity:0.973" fill="#3f3f42" d="M 984.5,53.5 C 996.5,53.5 1008.5,53.5 1020.5,53.5C 1033.44,102.113 1046.78,150.613 1060.5,199C 1049.5,199.667 1038.5,199.667 1027.5,199C 1024.6,188.55 1021.76,178.05 1019,167.5C 1007,166.167 995,166.167 983,167.5C 980.321,177.883 977.488,188.216 974.5,198.5C 964.522,199.499 954.522,199.832 944.5,199.5C 957.52,150.752 970.854,102.086 984.5,53.5 Z M 1000.5,88.5 C 1005.77,106.24 1010.44,124.24 1014.5,142.5C 1006.14,142.831 997.807,142.498 989.5,141.5C 993.551,123.911 997.218,106.244 1000.5,88.5 Z"/></g>
<g><path style="opacity:0.951" fill="#3f3f43" d="M 1072.5,53.5 C 1081.17,53.5 1089.83,53.5 1098.5,53.5C 1098.5,94.8333 1098.5,136.167 1098.5,177.5C 1112.83,177.5 1127.17,177.5 1141.5,177.5C 1141.5,185.5 1141.5,193.5 1141.5,201.5C 1118.5,201.5 1095.5,201.5 1072.5,201.5C 1072.5,152.167 1072.5,102.833 1072.5,53.5 Z"/></g>
<g><path style="opacity:0.97" fill="#3f3f43" d="M 1213.5,53.5 C 1223.17,53.5 1232.83,53.5 1242.5,53.5C 1242.5,72.1667 1242.5,90.8333 1242.5,109.5C 1254.17,109.5 1265.83,109.5 1277.5,109.5C 1277.5,90.8333 1277.5,72.1667 1277.5,53.5C 1287.17,53.5 1296.83,53.5 1306.5,53.5C 1306.5,102.833 1306.5,152.167 1306.5,201.5C 1296.83,201.5 1287.17,201.5 1277.5,201.5C 1277.5,179.5 1277.5,157.5 1277.5,135.5C 1265.83,135.5 1254.17,135.5 1242.5,135.5C 1242.5,157.5 1242.5,179.5 1242.5,201.5C 1232.83,201.5 1223.17,201.5 1213.5,201.5C 1213.5,152.167 1213.5,102.833 1213.5,53.5 Z"/></g>
<g><path style="opacity:0.968" fill="#3f3f42" d="M 1436.5,53.5 C 1447.17,53.5 1457.83,53.5 1468.5,53.5C 1468.06,89.8589 1468.56,126.192 1470,162.5C 1472.98,177.908 1481.81,182.741 1496.5,177C 1500.37,173.748 1502.53,169.581 1503,164.5C 1504.44,127.525 1504.94,90.5255 1504.5,53.5C 1514.17,53.5 1523.83,53.5 1533.5,53.5C 1533.67,88.1683 1533.5,122.835 1533,157.5C 1530.62,194.303 1511.12,209.47 1474.5,203C 1450.51,200.332 1438.34,186.832 1438,162.5C 1436.67,126.18 1436.17,89.8471 1436.5,53.5 Z"/></g>
<g><path style="opacity:0.983" fill="#3f3f42" d="M 1660.5,53.5 C 1669.5,53.5 1678.5,53.5 1687.5,53.5C 1688.72,101.609 1688.72,150.942 1687.5,201.5C 1678.5,201.5 1669.5,201.5 1660.5,201.5C 1660.5,152.167 1660.5,102.833 1660.5,53.5 Z"/></g>
<g><path style="opacity:0.975" fill="#3f3f43" d="M 1709.5,53.5 C 1722.85,53.1675 1736.18,53.5008 1749.5,54.5C 1760,82.8333 1770.5,111.167 1781,139.5C 1781.5,110.835 1781.67,82.1686 1781.5,53.5C 1789.5,53.5 1797.5,53.5 1805.5,53.5C 1805.5,102.833 1805.5,152.167 1805.5,201.5C 1793.25,201.822 1781.09,201.488 1769,200.5C 1757.86,168.757 1746.53,137.091 1735,105.5C 1734.5,137.498 1734.33,169.498 1734.5,201.5C 1726.17,201.5 1717.83,201.5 1709.5,201.5C 1709.5,152.167 1709.5,102.833 1709.5,53.5 Z"/></g>
<g><path style="opacity:0.973" fill="#3f3f43" d="M 179.5,186.5 C 239.833,186.5 300.167,186.5 360.5,186.5C 360.5,202.833 360.5,219.167 360.5,235.5C 300.167,235.5 239.833,235.5 179.5,235.5C 179.5,219.167 179.5,202.833 179.5,186.5 Z"/></g>
<g><path style="opacity:0.978" fill="#3f3f43" d="M 624.5,240.5 C 639.5,240.5 654.5,240.5 669.5,240.5C 669.5,282.167 669.5,323.833 669.5,365.5C 708.156,366.639 746.822,367.639 785.5,368.5C 785.5,380.167 785.5,391.833 785.5,403.5C 731.833,403.5 678.167,403.5 624.5,403.5C 624.5,349.167 624.5,294.833 624.5,240.5 Z"/></g>
<g><path style="opacity:0.974" fill="#3f3f42" d="M 831.5,240.5 C 884.167,240.5 936.833,240.5 989.5,240.5C 989.5,252.5 989.5,264.5 989.5,276.5C 952.5,276.5 915.5,276.5 878.5,276.5C 878.5,284.167 878.5,291.833 878.5,299.5C 909.167,299.5 939.833,299.5 970.5,299.5C 970.5,310.833 970.5,322.167 970.5,333.5C 939.833,333.5 909.167,333.5 878.5,333.5C 878.5,345.167 878.5,356.833 878.5,368.5C 915.5,368.5 952.5,368.5 989.5,368.5C 989.5,380.167 989.5,391.833 989.5,403.5C 936.833,403.5 884.167,403.5 831.5,403.5C 831.5,349.167 831.5,294.833 831.5,240.5 Z"/></g>
<g><path style="opacity:0.975" fill="#3f3f42" d="M 1044.5,240.5 C 1061.5,240.333 1078.5,240.5 1095.5,241C 1123.79,273.74 1151.95,306.574 1180,339.5C 1180.5,306.502 1180.67,273.502 1180.5,240.5C 1195.17,240.5 1209.83,240.5 1224.5,240.5C 1224.5,294.833 1224.5,349.167 1224.5,403.5C 1206.83,403.667 1189.16,403.5 1171.5,403C 1143.67,371.167 1115.83,339.333 1088,307.5C 1087.5,339.498 1087.33,371.498 1087.5,403.5C 1073.17,403.5 1058.83,403.5 1044.5,403.5C 1044.5,349.167 1044.5,294.833 1044.5,240.5 Z"/></g>
<g><path style="opacity:0.981" fill="#3f3f43" d="M 1397.5,404.5 C 1361.5,404.5 1325.5,404.5 1289.5,404.5C 1289.5,349.833 1289.5,295.167 1289.5,240.5C 1321.5,240.333 1353.5,240.5 1385.5,241C 1457.09,241.251 1487.92,276.751 1478,347.5C 1471.89,378.607 1453.06,396.44 1421.5,401C 1413.37,402.327 1405.37,403.494 1397.5,404.5 Z M 1334.5,276.5 C 1351.5,276.333 1368.5,276.5 1385.5,277C 1422.08,285.3 1435.91,307.8 1427,344.5C 1421.89,356.81 1412.72,363.977 1399.5,366C 1394.19,366.813 1388.85,367.479 1383.5,368C 1367.17,368.5 1350.84,368.667 1334.5,368.5C 1334.5,337.833 1334.5,307.167 1334.5,276.5 Z"/></g>
<g><path style="opacity:0.973" fill="#3f3f42" d="M 1530.5,240.5 C 1582.17,240.5 1633.83,240.5 1685.5,240.5C 1685.5,252.5 1685.5,264.5 1685.5,276.5C 1648.83,276.5 1612.17,276.5 1575.5,276.5C 1575.5,284.167 1575.5,291.833 1575.5,299.5C 1606.83,299.5 1638.17,299.5 1669.5,299.5C 1669.5,310.833 1669.5,322.167 1669.5,333.5C 1638.17,333.5 1606.83,333.5 1575.5,333.5C 1575.5,345.167 1575.5,356.833 1575.5,368.5C 1612.17,368.5 1648.83,368.5 1685.5,368.5C 1685.5,379.833 1685.5,391.167 1685.5,402.5C 1633.83,402.716 1582.17,403.049 1530.5,403.5C 1530.5,349.167 1530.5,294.833 1530.5,240.5 Z"/></g>
<g><path style="opacity:0.976" fill="#3f3f42" d="M 1920.5,400.5 C 1920.5,401.833 1920.5,403.167 1920.5,404.5C 1904.17,404.5 1887.83,404.5 1871.5,404.5C 1856.55,382.536 1841.55,360.536 1826.5,338.5C 1812.18,337.501 1797.85,337.167 1783.5,337.5C 1783.5,359.833 1783.5,382.167 1783.5,404.5C 1768.17,404.5 1752.83,404.5 1737.5,404.5C 1737.5,349.833 1737.5,295.167 1737.5,240.5C 1779.83,240.333 1822.17,240.5 1864.5,241C 1909.57,243.09 1927.07,266.257 1917,310.5C 1912.35,321.153 1904.51,328.32 1893.5,332C 1887.54,333.691 1881.54,335.191 1875.5,336.5C 1890.03,358.25 1905.03,379.584 1920.5,400.5 Z M 1782.5,276.5 C 1809.5,276.333 1836.5,276.5 1863.5,277C 1874.54,278.366 1878.04,284.199 1874,294.5C 1871.81,297.181 1868.97,298.681 1865.5,299C 1837.84,299.5 1810.17,299.667 1782.5,299.5C 1782.5,291.833 1782.5,284.167 1782.5,276.5 Z"/></g>
<g><path style="opacity:0.973" fill="#3f3f42" d="M 179.5,257.5 C 239.833,257.5 300.167,257.5 360.5,257.5C 360.5,273.833 360.5,290.167 360.5,306.5C 300.167,306.5 239.833,306.5 179.5,306.5C 179.5,290.167 179.5,273.833 179.5,257.5 Z"/></g>
</svg>
