<svg xmlns="http://www.w3.org/2000/svg" xmlns:xlink="http://www.w3.org/1999/xlink" id="SvgjsSvg1037" width="288" height="288" version="1.1"><circle id="SvgjsCircle1043" cx="144" cy="144" r="144" fill="#9fa722" transform="matrix(0.7916,0,0,0.7916,30.009600000000006,30.009600000000006)"/><g id="SvgjsG1039" transform="matrix(0.4652,0,0,0.4652,77.0112,77.0112)"><svg xmlns="http://www.w3.org/2000/svg" width="288" height="288" viewBox="0 0 16 16"><path fill="#444" d="M8 0 0 3v2h16V3zM0 14h16v2H0v-2zM16 7V6H0v1h1v5H0v1h16v-1h-1V7h1zM4 12H3V7h1v5zm3 0H6V7h1v5zm3 0H9V7h1v5zm3 0h-1V7h1v5z" class="color444 svgShape"/></svg></g></svg>