<svg xmlns="http://www.w3.org/2000/svg" width="64" height="64" fill="none" viewBox="0 0 64 64"><path fill="url(#paint0_linear_464_14091)" d="M11.7034 43.0304H1.24951V57.0102H11.7034V43.0304Z"/><path fill="#444" d="M29.1312 29.0506H18.6772V63.9866H29.1312V29.0506Z"/><path fill="#444" d="M46.5721 11.5826H36.1182V63.9866H46.5721V11.5826Z"/><path fill="#444" d="M63.9998 1.10442H53.5459V63.9866H63.9998V1.10442Z"/><path fill="url(#paint1_linear_464_14091)" d="M29.1312 43.0304H18.6772V63.9866H29.1312V43.0304Z"/><path fill="url(#paint2_linear_464_14091)" d="M46.5721 29.0506H36.1182V63.9866H46.5721V29.0506Z"/><path fill="url(#paint3_linear_464_14091)" d="M63.9998 11.5826H53.5459V63.9866H63.9998V11.5826Z"/><path fill="#444" d="M63.9865 57.0102H1.24951V64H63.9865V57.0102Z"/><path fill="url(#paint4_linear_464_14091)" fill-rule="evenodd" d="M11.717 23.4882C18.1801 23.4882 23.434 18.2357 23.434 11.7441C23.434 5.25253 18.1936 0 11.717 0C5.24039 0 0 5.25253 0 11.7441C0 18.2357 5.24039 23.4882 11.717 23.4882ZM11.717 7.05723L7.0275 11.7576L11.717 16.4579L16.4065 11.7576L11.717 7.05723Z" clip-rule="evenodd"/><defs><linearGradient id="paint0_linear_464_14091" x1="6.49" x2="6.49" y1="57.01" y2="43.03" gradientUnits="userSpaceOnUse"><stop stop-color="#9fA722"/><stop offset="1" stop-color="#9fA722"/></linearGradient><linearGradient id="paint1_linear_464_14091" x1="23.918" x2="23.918" y1="63.987" y2="43.03" gradientUnits="userSpaceOnUse"><stop stop-color="#9fA722"/><stop offset="1" stop-color="#9fA722"/></linearGradient><linearGradient id="paint2_linear_464_14091" x1="41.345" x2="41.345" y1="63.987" y2="29.051" gradientUnits="userSpaceOnUse"><stop stop-color="#9fA722"/><stop offset="1" stop-color="#9fA722"/></linearGradient><linearGradient id="paint3_linear_464_14091" x1="58.773" x2="58.773" y1="63.987" y2="11.583" gradientUnits="userSpaceOnUse"><stop stop-color="#9fA722"/><stop offset="1" stop-color="#9fA722"/></linearGradient><linearGradient id="paint4_linear_464_14091" x1="11.717" x2="11.717" y1="23.502" y2=".013" gradientUnits="userSpaceOnUse"><stop stop-color="#F0B90B"/><stop offset="1" stop-color="#F8D33A"/></linearGradient></defs></svg>