<svg width="144" height="144" fill="none" xmlns="http://www.w3.org/2000/svg"><path fill-rule="evenodd" clip-rule="evenodd" d="M141.551 97.813l-3.022-11.278L3.272 122.777l3.022 11.278 135.257-36.242zm-46.782 45.474H43.396L69.083 117.6l25.686 25.687z" fill="#76808F"/><circle r="25.2" transform="matrix(1 0 0 -1 27.598 87.6)" fill="#F8D33A"/><circle r="17.733" transform="matrix(1 0 0 -1 27.602 87.597)" fill="url(#paint0_linear_4867_191014)"/><path d="M18.523 87.6l9.072 9.072 9.072-9.072-9.072-9.072-9.072 9.072z" fill="#F0B90B"/><path fill-rule="evenodd" clip-rule="evenodd" d="M119.26 34.153h16.615l-23.538-22.154-23.539 22.154h16.616V84h13.846V34.153z" fill="url(#paint1_linear_4867_191014)"/><path opacity=".3" fill-rule="evenodd" clip-rule="evenodd" d="M83.998 58.153h15.877L76.337 35.999l-23.54 22.154h16.8V93.6h14.4V58.153z" fill="#76808F"/><path opacity=".3" d="M19.2 29.4l8.4 8.4 8.4-8.4-8.4-8.4-8.4 8.4z" fill="#AEB4BC"/><path opacity=".6" d="M120 125.4l5.4-5.4 5.4 5.4-5.4 5.4-5.4-5.4z" fill="url(#paint2_linear_4867_191014)"/><defs><linearGradient id="paint0_linear_4867_191014" x1="17.733" y1="0" x2="17.733" y2="35.467" gradientUnits="userSpaceOnUse"><stop stop-color="#F0B90B"/><stop offset="1" stop-color="#F8D33A"/></linearGradient><linearGradient id="paint1_linear_4867_191014" x1="112.337" y1="11.999" x2="112.337" y2="84" gradientUnits="userSpaceOnUse"><stop stop-color="#929AA5"/><stop offset="1" stop-color="#76808F"/></linearGradient><linearGradient id="paint2_linear_4867_191014" x1="125.4" y1="120" x2="125.4" y2="130.8" gradientUnits="userSpaceOnUse"><stop stop-color="#929AA5"/><stop offset="1" stop-color="#76808F"/></linearGradient></defs></svg>