<svg xmlns="http://www.w3.org/2000/svg" version="1.1" xmlns:xlink="http://www.w3.org/1999/xlink" xmlns:svgjs="http://svgjs.dev/svgjs" width="3448" height="4560" preserveAspectRatio="none" viewBox="0 0 3448 4560"><g clip-path="url(&quot;#SvgjsClipPath1046&quot;)" fill="none"><rect width="3448" height="4560" x="0" y="0" fill="rgba(220, 223, 224, 1)"></rect><circle r="574.665" cx="269.71" cy="427.08" stroke="#ffffff" stroke-opacity="1" stroke-width="2"></circle><circle r="731.57" cx="541.35" cy="950.22" stroke="#ffffff" stroke-opacity="1" stroke-width="2"></circle><circle r="301.85" cx="2359.06" cy="641.91" stroke="#ffffff" stroke-opacity="1" stroke-width="2"></circle><circle r="638.835" cx="1460.19" cy="3167.58" stroke="#ffffff" stroke-opacity="1" stroke-width="2"></circle><circle r="316.395" cx="3237.86" cy="1838.79" stroke="#ffffff" stroke-opacity="1" stroke-width="2"></circle><circle r="899.21" cx="2553.57" cy="1902.9" stroke="#ffffff" stroke-opacity="1" stroke-width="2"></circle><circle r="417.33" cx="3204.97" cy="868.36" stroke="#ffffff" stroke-opacity="1" stroke-width="2"></circle><circle r="707.785" cx="1920.22" cy="1122.02" stroke="#ffffff" stroke-opacity="1" stroke-width="2"></circle><circle r="878.07" cx="2338.29" cy="3051.02" stroke="#ffffff" stroke-opacity="1" stroke-width="2"></circle><circle r="877.38" cx="1152.88" cy="877.42" stroke="#ffffff" stroke-opacity="1" stroke-width="2"></circle><circle r="692.475" cx="2215.15" cy="1822.63" stroke="#ffffff" stroke-opacity="1" stroke-width="2"></circle><circle r="693.795" cx="1705.69" cy="4083.36" stroke="#ffffff" stroke-opacity="1" stroke-width="2"></circle><circle r="572.325" cx="1543.64" cy="3578.78" stroke="#ffffff" stroke-opacity="1" stroke-width="2"></circle><circle r="337.565" cx="1214.7" cy="3366.67" stroke="#ffffff" stroke-opacity="1" stroke-width="2"></circle><circle r="318.135" cx="3128.3" cy="1561.87" stroke="#ffffff" stroke-opacity="1" stroke-width="2"></circle><circle r="544.92" cx="3053.67" cy="4085.2" stroke="#ffffff" stroke-opacity="1" stroke-width="2"></circle><circle r="493.85" cx="1045.63" cy="115.26" stroke="#ffffff" stroke-opacity="1" stroke-width="2"></circle><circle r="1093.16" cx="3027.83" cy="1251.18" stroke="#ffffff" stroke-opacity="1" stroke-width="2"></circle><circle r="743.15" cx="1692.69" cy="2272.05" stroke="#ffffff" stroke-opacity="1" stroke-width="2"></circle><circle r="710.44" cx="3254.46" cy="3253.14" stroke="#ffffff" stroke-opacity="1" stroke-width="2"></circle><circle r="605.22" cx="2625.01" cy="1486.57" stroke="#ffffff" stroke-opacity="1" stroke-width="2"></circle><circle r="583.935" cx="2774.85" cy="3951.02" stroke="#ffffff" stroke-opacity="1" stroke-width="2"></circle><circle r="730.44" cx="477.3" cy="4415.99" stroke="#ffffff" stroke-opacity="1" stroke-width="2"></circle><circle r="287.815" cx="2179.56" cy="3882.02" stroke="#ffffff" stroke-opacity="1" stroke-width="2"></circle><circle r="584.275" cx="1776.2" cy="650.87" stroke="#ffffff" stroke-opacity="1" stroke-width="2"></circle><circle r="513.765" cx="1126.79" cy="1733.96" stroke="#ffffff" stroke-opacity="1" stroke-width="2"></circle><circle r="300.815" cx="2536.12" cy="4199.32" stroke="#ffffff" stroke-opacity="1" stroke-width="2"></circle><circle r="949.29" cx="2499.79" cy="1069.67" stroke="#ffffff" stroke-opacity="1" stroke-width="2"></circle><circle r="934.455" cx="2362.05" cy="1228.68" stroke="#ffffff" stroke-opacity="1" stroke-width="2"></circle><circle r="844.5" cx="2940.39" cy="4411.77" stroke="#ffffff" stroke-opacity="1" stroke-width="2"></circle><circle r="983.24" cx="1456.59" cy="4078.09" stroke="#ffffff" stroke-opacity="1" stroke-width="2"></circle><circle r="659.19" cx="1615.64" cy="1432.78" stroke="#ffffff" stroke-opacity="1" stroke-width="2"></circle><circle r="451.925" cx="1405.27" cy="455.96" stroke="#ffffff" stroke-opacity="1" stroke-width="2"></circle><circle r="1112.465" cx="3205.9" cy="1753.64" stroke="#ffffff" stroke-opacity="1" stroke-width="2"></circle><circle r="595.545" cx="1742.43" cy="361.13" stroke="#ffffff" stroke-opacity="1" stroke-width="2"></circle><circle r="848.26" cx="1343.81" cy="1396.67" stroke="#ffffff" stroke-opacity="1" stroke-width="2"></circle><circle r="756.235" cx="1363.32" cy="2486.99" stroke="#ffffff" stroke-opacity="1" stroke-width="2"></circle><circle r="696.44" cx="1001.43" cy="1718.84" stroke="#ffffff" stroke-opacity="1" stroke-width="2"></circle><circle r="449.145" cx="2607" cy="4436.61" stroke="#ffffff" stroke-opacity="1" stroke-width="2"></circle><circle r="609.64" cx="2985.44" cy="3924.64" stroke="#ffffff" stroke-opacity="1" stroke-width="2"></circle><circle r="467.195" cx="2601.68" cy="860.93" stroke="#ffffff" stroke-opacity="1" stroke-width="2"></circle><circle r="331.065" cx="2686.02" cy="2635.25" stroke="#ffffff" stroke-opacity="1" stroke-width="2"></circle><circle r="417.01" cx="1514.16" cy="229.66" stroke="#ffffff" stroke-opacity="1" stroke-width="2"></circle><circle r="637.715" cx="1486.51" cy="2245.2" stroke="#ffffff" stroke-opacity="1" stroke-width="2"></circle><circle r="897.57" cx="1183.36" cy="214.84" stroke="#ffffff" stroke-opacity="1" stroke-width="2"></circle><circle r="489.235" cx="1965.59" cy="3698.59" stroke="#ffffff" stroke-opacity="1" stroke-width="2"></circle><circle r="1079.24" cx="2084.9" cy="1383.87" stroke="#ffffff" stroke-opacity="1" stroke-width="2"></circle><circle r="326.96" cx="83.29" cy="578.78" stroke="#ffffff" stroke-opacity="1" stroke-width="2"></circle><circle r="561.9" cx="1957.89" cy="3738.9" stroke="#ffffff" stroke-opacity="1" stroke-width="2"></circle><circle r="401.94" cx="2350.67" cy="4079.16" stroke="#ffffff" stroke-opacity="1" stroke-width="2"></circle></g><defs><clipPath id="SvgjsClipPath1046"><rect width="3448" height="4560" x="0" y="0"></rect></clipPath></defs></svg>