<svg xmlns="http://www.w3.org/2000/svg" width="56" height="56" fill="none" viewBox="0 0 56 56"><rect width="5.964" height="48.31" y="7.69" fill="#444"/><rect width="6.234" height="54.469" x="54.469" y="49.766" fill="#444" transform="rotate(90 54.4688 49.7655)"/><path fill="url(#paint0_linear_1173_20795)" d="M41.509 7.69406H33.3459V29.8593H41.509V7.69406Z"/><path fill="url(#paint1_linear_1173_20795)" d="M30.2508 15.942H21.9563V38.1073H30.2508V15.942Z"/><path fill="url(#paint2_linear_1173_20795)" d="M19.3921 28.7576H10.9375V45.2448H19.3921V28.7576Z"/><path fill="#444" d="M17.3382 19.6372H12.9915V28.7575H17.3382V19.6372Z"/><path fill="#444" d="M28.3313 11.7067H23.8756V15.942H28.3313V11.7067Z"/><path fill="#444" d="M39.5938 29.8594H35.2625V43.5001H39.5938V29.8594Z"/><path fill="#444" d="M50.75 7.69022H46.4375V24.7411H50.75V7.69022Z"/><path fill="url(#paint3_linear_1173_20795)" d="M52.7144 16.2154H44.4735V29.8594H52.7144V16.2154Z"/><defs><linearGradient id="paint0_linear_1173_20795" x1="37.427" x2="37.427" y1="29.859" y2="7.694" gradientUnits="userSpaceOnUse"><stop stop-color="#9fA722"/><stop offset="1" stop-color="#9fA722"/></linearGradient><linearGradient id="paint1_linear_1173_20795" x1="26.104" x2="26.104" y1="38.107" y2="15.942" gradientUnits="userSpaceOnUse"><stop stop-color="#9fA722"/><stop offset="1" stop-color="#9fA722"/></linearGradient><linearGradient id="paint2_linear_1173_20795" x1="15.165" x2="15.165" y1="45.245" y2="28.758" gradientUnits="userSpaceOnUse"><stop stop-color="#9fA722"/><stop offset="1" stop-color="#9fA722"/></linearGradient><linearGradient id="paint3_linear_1173_20795" x1="48.594" x2="48.594" y1="29.859" y2="16.215" gradientUnits="userSpaceOnUse"><stop stop-color="#9fA722"/><stop offset="1" stop-color="#9fA722"/></linearGradient></defs></svg>